<?xml version="1.0" standalone="no"?><!DOCTYPE svg PUBLIC "-//W3C//DTD SVG 1.1//EN" "http://www.w3.org/Graphics/SVG/1.1/DTD/svg11.dtd"><svg class="icon" width="16px" height="16.00px" viewBox="0 0 1024 1024" version="1.1" xmlns="http://www.w3.org/2000/svg"><path fill="#1296db" d="M396.311141 469.381343c4.125971 1.728364 41.863457 16.885576 95.695502 16.885576 32.43369 0 64.204277-5.53711 94.432743-16.458857 11.522428-4.203742 17.495466-16.97665 13.317307-28.466332-4.095271-11.45796-16.881482-17.45658-28.515451-13.361309-34.382065 12.467963-70.976518 16.455787-108.764146 11.850909-27.342742-3.329838-45.534056-10.105149-48.869011-11.416004-5.474688-2.324952-11.485589-2.390443-16.928554-0.189312-5.505387 2.227738-9.830903 6.510274-12.181437 12.066827C379.804189 451.590142 385.101845 464.638319 396.311141 469.381343zM357.701798 275.90791c-19.447934 0-35.271318 15.82236-35.271318 35.270295 0 19.448958 15.82236 35.271318 35.271318 35.271318 19.447934 0 35.270295-15.82236 35.270295-35.271318C392.972093 291.729248 377.149732 275.90791 357.701798 275.90791zM636.103506 346.4485c19.447934 0 35.270295-15.82236 35.270295-35.271318 0-19.447934-15.82236-35.270295-35.270295-35.270295-19.447934 0-35.270295 15.82236-35.270295 35.270295C600.832188 330.626139 616.654548 346.4485 636.103506 346.4485zM704.960757 631.378901c-21.488407-12.844539-44.404326-23.468504-68.686359-31.837102 6.571672-3.827165 13.001105-7.902994 19.276019-12.222369 24.980951-17.193591 46.945195-37.839817 65.283866-61.365626 38.511105-49.405223 58.866712-108.509343 58.866712-170.923858 0-159.78517-129.966027-289.778826-289.715381-289.778826-159.78517 0-289.779849 129.993656-289.779849 289.778826 0 64.689325 20.348444 125.156488 58.845223 174.862563 22.734794 29.353538 50.665936 53.571103 82.557274 71.856561-19.444864 6.829546-37.95852 15.125489-55.393611 24.869411-34.302247 19.171642-65.392336 44.414559-92.408643 75.029834-49.869804 56.512085-87.855954 133.618207-112.902396 229.17454-1.505283 5.742794-0.686638 11.727089 2.306532 16.853853 2.994194 5.128811 7.79964 8.78099 13.515828 10.279111 1.911536 0.525979 3.874237 0.792039 5.832845 0.792039 3.812839 0 7.596002-1.023306 10.942213-2.956332 5.185093-2.996241 8.877181-7.854898 10.394744-13.678534 23.324218-88.899726 56.245002-157.057035 100.643188-208.366631 23.962761-27.693736 51.610448-50.468438 82.175581-67.692728 30.482245-17.177218 64.830541-29.366841 102.169961-36.290531 0.352017 0.098237 0.700965 0.203638 1.052982 0.299829l3.827165 1.050935-0.25378-2.178619c0.484024-0.083911 0.962931-0.177032 1.447978-0.258896l2.714831-0.458441-8.619308-43.6041-1.845021 0.315178-0.320295-0.116657c-47.01478-17.064654-87.296205-47.498804-116.491131-88.01252-29.930683-41.534975-45.750997-90.558505-45.750997-141.769864 0-135.280056 110.057605-245.338684 245.337661-245.338684 135.24424 0 245.274216 110.058628 245.274216 245.338684 0 48.876174-15.446807 96.448656-44.671409 137.574309-28.092825 39.532365-66.591651 70.264297-111.333668 88.875167l-1.346671 0.559748-1.774413 9.792017-8.090259 34.982746 1.691525 0.318248-0.230244 1.27197 2.601244-0.813528c23.63428 4.532223 46.13576 11.171434 67.287499 19.824511C655.293567 646.090974 680.783101 642.271996 704.960757 631.378901zM945.470459 779.607874c0-2.77316-1.019213-5.659907-3.171226-7.753591-2.095731-2.152013-4.985548-3.288906-7.759731-3.288906l-16.651238 0c-6.90834 0-14.326287-5.380544-16.364713-11.9471l-8.662287-21.122063c-3.28379-6.118348-1.984191-15.179724 2.945075-19.99131l11.946077-11.893888c1.926886-2.035356 3.171226-4.811586 3.171226-7.809873 0-3.058662-1.188058-5.832845-3.171226-7.759731l-20.215414-20.047592c-1.983167-1.983167-4.643764-3.226484-7.759731-3.226484-2.998287 0-5.720282 1.186012-7.699356 3.226484l-11.95017 11.834536c-4.925173 4.872984-13.929244 6.285147-19.99131 2.889817l-21.123087-8.606005c-6.566556-2.039449-12.062733-9.343809-12.062733-16.365736l0-16.650215c0-2.88777-1.076518-5.664-3.227508-7.759731-2.095731-2.152013-4.925173-3.226484-7.699356-3.226484l-28.483728 0c-2.833535 0-5.664 1.074472-7.759731 3.226484-2.095731 2.095731-3.28379 4.872984-3.28379 7.759731l0 16.706497c0 7.020904-5.379521 14.32731-12.062733 16.365736l-20.954241 8.606005c-6.056949 3.455705-15.116279 1.983167-19.928888-2.885723l-12.006452-11.838629c-1.926886-1.983167-4.644787-3.228531-7.703449-3.228531-2.998287 0-5.777587 1.188058-7.816013 3.228531l-20.10285 20.047592c-1.921769 1.926886-3.227508 4.699022-3.227508 7.758708 0 2.998287 1.248434 5.777587 3.227508 7.816013l11.95017 11.890818c4.869914 4.811586 6.173606 13.817704 2.946099 19.99131l-8.66638 21.122063c-2.094708 6.566556-9.402137 12.063757-16.309454 12.063757l-16.815991-0.112564c-2.778276 0-5.552459 1.1328-7.703449 3.282766-2.152013 2.094708-3.28379 4.982478-3.28379 7.756661l0 28.483728c0 2.835581 1.131777 5.608741 3.28379 7.759731 2.15099 2.208295 4.924149 3.284813 7.703449 3.284813l16.815991 0c6.907317 0 14.213723 5.321192 16.253172 12.005428l8.722662 21.010523c3.28379 6.169513 1.921769 15.233959-2.946099 20.047592l-11.95017 11.834536c-1.921769 2.039449-3.227508 4.812609-3.227508 7.813966 0 3.058662 1.248434 5.777587 3.227508 7.816013l20.10285 20.047592c2.039449 1.921769 4.817726 3.169179 7.816013 3.169179 3.058662 0 5.831822-1.191128 7.703449-3.169179l11.946077-11.951193c4.874007-4.813632 13.876032-6.173606 19.990287-2.885723l21.066805 8.662287c6.684236 2.039449 12.062733 9.399067 12.062733 16.309454l0 16.702404c0 2.945075 1.188058 5.720282 3.28379 7.872295 2.094708 2.093684 4.929266 3.169179 7.759731 3.169179l28.484751 0c2.77316 0 5.603625-1.076518 7.698333-3.169179 2.156106-2.152013 3.232624-4.926196 3.232624-7.872295l0-16.702404c0-6.909363 5.491061-14.270005 12.05864-16.309454l21.12411-8.662287c6.118348-3.344165 15.066137-1.927909 19.990287 2.885723l11.893888 11.951193c2.039449 1.921769 4.700045 3.282766 7.754614 3.282766 3.003404 0 5.777587-1.186012 7.759731-3.282766l20.216437-20.047592c1.925862-2.039449 3.170203-4.757351 3.170203-7.816013 0-3.00238-1.187035-5.77554-3.170203-7.813966l-11.946077-11.834536c-4.929266-4.870938-6.173606-13.877055-2.946099-20.047592l8.66638-21.010523c2.035356-6.684236 9.453303-12.005428 16.365736-12.005428l16.703427 0c2.77316 0 5.662977-1.075495 7.759731-3.284813 2.152013-2.152013 3.171226-4.924149 3.171226-7.759731l0-28.541033L945.470459 779.60992zM781.868357 856.736509c-34.770921 0-62.97017-28.087709-62.97017-62.914912 0-34.770921 28.141944-62.969147 62.913888-62.969147 34.770921 0 62.97017 28.198226 62.97017 62.969147C844.781222 828.649823 816.638255 856.736509 781.868357 856.736509z" /></svg>