<?xml version="1.0" standalone="no"?><!DOCTYPE svg PUBLIC "-//W3C//DTD SVG 1.1//EN" "http://www.w3.org/Graphics/SVG/1.1/DTD/svg11.dtd"><svg class="icon" width="16px" height="16.00px" viewBox="0 0 1024 1024" version="1.1" xmlns="http://www.w3.org/2000/svg"><path fill="#1296db" d="M785.92 279.68A275.2 275.2 0 0 0 512 4.48a269.44 269.44 0 0 0-270.08 275.2 272.64 272.64 0 0 0 159.36 247.04 490.24 490.24 0 0 0-376.96 478.72 15.36 15.36 0 0 0 14.72 14.72 15.36 15.36 0 0 0 14.72-14.72 451.84 451.84 0 0 1 448-448 286.72 286.72 0 0 0 282.88-275.84z m-507.52 0a232.32 232.32 0 1 1 464-7.04A240 240 0 0 1 512 512a233.6 233.6 0 0 1-233.6-232.32z"  /><path fill="#1296db" d="M996.48 679.04a15.36 15.36 0 0 0-14.72-14.72L814.72 640 742.4 483.2a20.48 20.48 0 0 0-36.48 0L633.6 640l-167.04 21.76a15.36 15.36 0 0 0-14.72 14.72 26.88 26.88 0 0 0 7.04 21.76l123.52 123.52-28.8 174.08c0 7.04 0 14.72 7.04 14.72a26.88 26.88 0 0 0 21.76 7.04l145.28-80 145.28 80h14.72a22.4 22.4 0 0 0 7.04-14.72l-21.76-181.12 123.52-123.52c0-7.04 7.04-14.72 0-21.76z m-152.32 123.52c-7.04 7.04-7.04 7.04-7.04 14.72l21.12 142.72-123.52-64h-14.72l-122.88 64 21.76-145.28c0-7.04 0-14.72-7.04-14.72L512 700.8l137.6-21.76a25.6 25.6 0 0 0 14.72-7.04l64-137.6 64 128c0 7.04 7.04 7.04 14.72 7.04l137.6 21.76-101.76 108.8z"  /></svg>